 <svg
      version="1.1"
      xmlns="http://www.w3.org/2000/svg"
      height="50"
      viewBox="0 0 400 400"
    >
      <path
        d="M0 0 C0.76 -0.01 1.52 -0.01 2.31 -0.02 C4.86 -0.03 7.42 -0.04 9.98 -0.05 C11.81 -0.06 13.64 -0.07 15.47 -0.08 C21.49 -0.11 27.5 -0.13 33.52 -0.15 C34.54 -0.15 35.56 -0.15 36.62 -0.16 C46.27 -0.19 55.93 -0.22 65.58 -0.23 C77.92 -0.25 90.27 -0.3 102.62 -0.37 C111.3 -0.41 119.98 -0.44 128.66 -0.44 C133.85 -0.45 139.03 -0.46 144.22 -0.5 C149.1 -0.54 153.97 -0.55 158.85 -0.54 C160.64 -0.54 162.43 -0.55 164.22 -0.57 C179.42 -0.74 179.42 -0.74 183.96 2.95 C190.12 9.63 189.62 17.99 189.62 26.53 C189.63 27.58 189.63 28.62 189.63 29.7 C189.65 33.19 189.65 36.69 189.66 40.18 C189.67 42.69 189.68 45.2 189.68 47.7 C189.71 55.22 189.72 62.74 189.74 70.26 C189.74 72.39 189.74 74.51 189.75 76.64 C189.77 89.85 189.8 103.06 189.81 116.27 C189.81 119.33 189.81 122.38 189.82 125.44 C189.82 126.2 189.82 126.96 189.82 127.74 C189.83 140.05 189.87 152.35 189.91 164.66 C189.95 177.3 189.97 189.95 189.98 202.59 C189.98 209.69 189.99 216.78 190.03 223.88 C190.06 230.55 190.06 237.23 190.05 243.9 C190.05 246.35 190.06 248.79 190.08 251.24 C190.1 254.59 190.09 257.93 190.07 261.28 C190.09 262.24 190.1 263.21 190.12 264.2 C190.01 272.96 186.75 280.58 180.53 286.85 C164.1 302.19 143.03 301.6 122.03 301.35 C119.83 301.33 117.64 301.32 115.44 301.31 C110.12 301.27 104.79 301.22 99.47 301.16 C97.97 298.17 98.31 295.43 98.29 292.1 C98.28 291.37 98.28 290.64 98.27 289.89 C98.25 287.48 98.24 285.07 98.23 282.66 C98.22 281.84 98.22 281.02 98.22 280.17 C98.2 275.83 98.18 271.48 98.17 267.13 C98.16 262.63 98.13 258.14 98.09 253.64 C98.06 250.19 98.05 246.73 98.05 243.28 C98.04 241.62 98.03 239.96 98.01 238.31 C97.99 235.99 97.99 233.67 98 231.35 C97.99 230.03 97.99 228.71 97.98 227.36 C98.47 224.16 98.47 224.16 100.36 222.35 C101.05 221.96 101.75 221.56 102.47 221.16 C103.19 220.44 103.91 219.72 104.65 218.97 C107.08 216.55 109.55 214.21 112.09 211.91 C113.22 210.88 113.22 210.88 114.38 209.83 C116.47 208.16 116.47 208.16 119.47 207.16 C120.05 206.42 120.63 205.67 121.23 204.91 C123.89 201.64 126.77 199.58 130.22 197.22 C131.48 196.35 132.74 195.47 133.99 194.59 C134.6 194.17 135.2 193.75 135.82 193.32 C137.85 191.89 139.82 190.38 141.78 188.85 C144.94 186.47 148.2 184.53 151.68 182.66 C155.49 180.61 159.26 178.48 163.03 176.35 C164.45 175.55 165.87 174.75 167.28 173.95 C168.33 173.36 169.38 172.77 170.47 172.16 C170.47 170.84 170.47 169.52 170.47 168.16 C161.01 164.71 152.86 163.33 143.47 167.6 C141.8 168.45 140.13 169.3 138.47 170.16 C137.48 170.49 136.49 170.82 135.47 171.16 C134.13 172.15 132.8 173.15 131.47 174.16 C130.14 174.84 128.81 175.51 127.47 176.16 C124.43 177.83 124.43 177.83 123.47 180.16 C121.4 180.79 121.4 180.79 119.47 181.16 C119.47 181.82 119.47 182.48 119.47 183.16 C118.83 183.26 118.19 183.37 117.53 183.47 C116.85 183.7 116.17 183.93 115.47 184.16 C115.14 185.15 114.81 186.14 114.47 187.16 C113.54 187.38 113.54 187.38 112.59 187.6 C109.75 188.35 109.1 189.79 107.47 192.16 C106.81 192.49 106.15 192.82 105.47 193.16 C105.18 193.82 104.89 194.48 104.59 195.16 C103.47 197.16 103.47 197.16 101.34 197.91 C100.72 197.99 100.1 198.08 99.47 198.16 C98.57 195.46 98.31 193.75 98.24 190.97 C98.21 189.71 98.21 189.71 98.17 188.42 C98.1 184.58 98.05 180.73 98.01 176.89 C97.98 174.87 97.94 172.84 97.88 170.82 C97.8 167.9 97.77 164.97 97.75 162.05 C97.72 161.15 97.68 160.25 97.65 159.32 C97.67 153.14 97.67 153.14 99.98 150.31 C101.74 148.8 103.56 147.49 105.47 146.16 C106.83 144.77 106.83 144.77 108.22 143.35 C110.47 141.16 110.47 141.16 113.47 140.16 C114.01 139.45 114.55 138.75 115.11 138.02 C118.33 134.12 122.14 131.43 126.22 128.47 C127.06 127.86 127.89 127.25 128.76 126.62 C139.76 118.67 151.28 111.39 163.34 105.16 C166.59 103.55 166.59 103.55 167.16 101.04 C167.26 100.42 167.36 99.8 167.47 99.16 C157.61 95.57 148.81 94.46 139.03 98.81 C135.13 100.86 131.47 103.22 127.81 105.67 C125.47 107.16 125.47 107.16 122.47 108.16 C119.58 109.93 119.58 109.93 117.97 111.72 C116.47 113.16 116.47 113.16 113.47 114.16 C112.33 115.3 111.2 116.44 110.09 117.6 C108.32 119.3 106.43 120.7 104.47 122.16 C102.41 124 102.41 124 101.47 126.16 C100.81 126.16 100.15 126.16 99.47 126.16 C97.67 120.76 97.96 114.88 97.84 109.22 C97.8 107.69 97.74 106.15 97.66 104.62 C96.99 91.86 96.99 91.86 100.64 87.66 C103.17 85.9 105.72 84.54 108.47 83.16 C109.48 82.17 110.48 81.17 111.47 80.16 C112.13 80.16 112.79 80.16 113.47 80.16 C113.59 79.48 113.71 78.8 113.84 78.1 C114.47 75.16 114.47 75.16 115.53 72.04 C117.75 62.87 117.06 53.43 112.32 45.16 C107.57 38.8 100.37 36.28 92.97 34.16 C85.92 34.16 79.32 36.26 73.47 40.16 C72.74 40.28 72.02 40.41 71.28 40.54 C70.68 40.74 70.08 40.95 69.47 41.16 C68.38 43.37 68.38 43.37 67.47 46.16 C66.81 47.21 66.15 48.26 65.47 49.35 C61.89 55.59 60.81 61.69 62.47 68.72 C64.25 74.18 66.51 78.96 70.47 83.16 C72.17 83.89 73.88 84.58 75.61 85.24 C78.31 86.8 80.08 87.93 81.04 90.99 C81.93 96.63 81.72 102.34 81.59 108.04 C81.59 109.79 81.59 111.55 81.6 113.3 C81.61 117.59 81.55 121.87 81.47 126.16 C78.97 124.96 76.79 123.71 74.47 122.16 C74.47 121.5 74.47 120.84 74.47 120.16 C73.66 119.89 72.86 119.62 72.03 119.35 C71.18 118.96 70.34 118.56 69.47 118.16 C69.14 117.17 68.81 116.18 68.47 115.16 C65.96 113.94 65.96 113.94 63.47 113.16 C63.47 112.5 63.47 111.84 63.47 111.16 C62.7 110.81 62.7 110.81 61.91 110.46 C59.25 109.05 56.82 107.39 54.34 105.68 C40.61 96.01 40.61 96.01 24.47 93.16 C21.85 93.75 19.36 94.49 16.83 95.37 C14.39 96.19 11.99 96.7 9.47 97.16 C9.47 98.48 9.47 99.8 9.47 101.16 C10.29 101.39 11.11 101.62 11.95 101.86 C16.22 103.44 19.86 105.58 23.72 107.97 C24.5 108.46 25.28 108.94 26.09 109.43 C42.74 119.85 58.87 131.82 73.28 145.19 C75.41 147.25 75.41 147.25 78.06 148.62 C81.81 152.58 81.19 156.57 81.17 161.83 C81.19 162.87 81.2 163.91 81.22 164.98 C81.26 168.29 81.27 171.6 81.28 174.91 C81.3 177.16 81.33 179.4 81.36 181.65 C81.42 187.15 81.45 192.66 81.47 198.16 C78.41 196.69 76.07 195.12 73.53 192.85 C72.84 192.23 72.14 191.61 71.43 190.98 C69.78 189.45 68.21 187.9 66.65 186.29 C64.57 183.95 64.57 183.95 61.47 183.16 C60.81 182.17 60.15 181.18 59.47 180.16 C58.48 179.83 57.49 179.5 56.47 179.16 C56.47 178.5 56.47 177.84 56.47 177.16 C55.73 176.89 54.98 176.61 54.22 176.33 C51.64 175.24 49.67 174.03 47.4 172.41 C36.64 165.05 27.48 160.81 14.53 163.16 C12.84 163.49 11.15 163.82 9.47 164.16 C9.47 164.82 9.47 165.48 9.47 166.16 C8.15 166.49 6.83 166.82 5.47 167.16 C5.47 168.15 5.47 169.14 5.47 170.16 C6.12 170.23 6.78 170.29 7.46 170.36 C11.66 171.48 14.93 173.61 18.59 175.91 C19.38 176.4 20.16 176.88 20.97 177.39 C33.76 185.41 46.25 193.69 57.62 203.67 C60.24 205.96 62.92 208.14 65.65 210.29 C66.39 210.89 67.13 211.5 67.89 212.12 C70.42 214.19 70.42 214.19 73.09 215.88 C77.52 219.1 80.09 221.53 81.34 226.98 C81.75 231.69 81.59 236.38 81.44 241.1 C81.42 242.84 81.41 244.57 81.4 246.31 C81.36 250.85 81.26 255.39 81.15 259.94 C81.05 264.58 81.01 269.23 80.96 273.87 C80.85 282.97 80.68 292.07 80.47 301.16 C67.62 301.23 54.77 301.28 41.92 301.32 C35.95 301.33 29.99 301.35 24.02 301.39 C18.26 301.42 12.49 301.44 6.73 301.45 C4.54 301.45 2.34 301.46 0.15 301.48 C-2.94 301.5 -6.02 301.5 -9.1 301.5 C-10.45 301.52 -10.45 301.52 -11.82 301.53 C-25.58 301.47 -36.25 296.48 -46.16 287.1 C-57.07 275.74 -66.87 259.35 -66.8 243.26 C-66.81 242.48 -66.81 241.71 -66.81 240.91 C-66.83 238.31 -66.83 235.72 -66.82 233.12 C-66.83 231.26 -66.84 229.39 -66.84 227.53 C-66.86 222.47 -66.87 217.41 -66.87 212.35 C-66.87 209.18 -66.87 206.02 -66.88 202.85 C-66.9 191.8 -66.91 180.76 -66.9 169.71 C-66.9 159.42 -66.92 149.14 -66.96 138.86 C-66.98 130.02 -66.99 121.18 -66.99 112.34 C-66.99 107.06 -67 101.79 -67.02 96.51 C-67.04 91.55 -67.04 86.58 -67.02 81.62 C-67.02 79.8 -67.02 77.99 -67.04 76.17 C-67.12 62.75 -65.26 52.56 -57.85 41.1 C-57.19 40.08 -57.19 40.08 -56.53 39.03 C-47.92 25.88 -37.52 17.81 -23.53 11 C-19.92 9.18 -17.98 7.97 -16.53 4.16 C-11.13 0.32 -6.47 0.01 0 0 Z M-17.53 52.16 C-18.18 53.06 -18.18 53.06 -18.85 53.97 C-20.32 55.88 -21.8 57.5 -23.53 59.16 C-30.15 65.52 -32.11 74.57 -34.53 83.16 C-34.8 84.04 -34.8 84.04 -35.06 84.93 C-35.65 87.72 -35.67 90.32 -35.67 93.17 C-35.68 94.4 -35.69 95.64 -35.69 96.91 C-35.69 98.27 -35.69 99.63 -35.69 100.99 C-35.7 102.43 -35.7 103.87 -35.71 105.31 C-35.72 109.21 -35.73 113.12 -35.73 117.02 C-35.74 119.47 -35.74 121.91 -35.74 124.36 C-35.76 132.02 -35.77 139.68 -35.77 147.34 C-35.78 156.16 -35.79 164.97 -35.82 173.79 C-35.84 180.62 -35.85 187.45 -35.86 194.28 C-35.86 198.36 -35.86 202.43 -35.88 206.5 C-35.9 210.34 -35.9 214.18 -35.89 218.02 C-35.89 219.42 -35.89 220.81 -35.9 222.21 C-35.99 235.51 -34.33 248.98 -26.53 260.16 C-25.87 260.16 -25.21 260.16 -24.53 260.16 C-24.35 260.74 -24.16 261.32 -23.97 261.91 C-21.79 265.33 -19.17 266.41 -15.53 268.16 C-14.87 267.83 -14.21 267.5 -13.53 267.16 C-13.86 266.83 -14.19 266.5 -14.53 266.16 C-14.62 263.43 -14.65 260.73 -14.63 258.01 C-14.63 257.14 -14.63 256.28 -14.63 255.38 C-14.62 252.46 -14.61 249.54 -14.6 246.62 C-14.59 244.53 -14.59 242.45 -14.58 240.36 C-14.57 235.86 -14.56 231.36 -14.55 226.85 C-14.52 219.74 -14.51 212.63 -14.5 205.52 C-14.47 185.29 -14.42 165.06 -14.36 144.83 C-14.33 133.67 -14.3 122.51 -14.29 111.34 C-14.28 105.43 -14.27 99.52 -14.25 93.6 C-14.22 88.04 -14.21 82.48 -14.21 76.93 C-14.21 74.88 -14.2 72.83 -14.19 70.79 C-14.17 68.01 -14.17 65.23 -14.18 62.44 C-14.17 61.62 -14.16 60.81 -14.15 59.96 C-14.13 57.49 -14.13 57.49 -14.53 54.16 C-15.52 53.5 -16.51 52.84 -17.53 52.16 Z M117.47 55.16 C118.47 57.16 118.47 57.16 118.47 57.16 Z M117.47 68.16 C118.47 70.16 118.47 70.16 118.47 70.16 Z "
        fill="#ffff"
        transform="translate(179.5331573486328,32.83937072753906)"
      ></path>
    </svg>