<?xml version="1.0" encoding="UTF-8"?>
<!-- Generator: visioncortex VTracer 0.6.3 -->
<svg version="1.1" xmlns="http://www.w3.org/2000/svg" width="1280" height="399">
<path d="M0 0 C0.76 -0.01 1.52 -0.01 2.31 -0.02 C4.86 -0.03 7.42 -0.04 9.98 -0.05 C11.81 -0.06 13.64 -0.07 15.47 -0.08 C21.49 -0.11 27.5 -0.13 33.52 -0.15 C34.54 -0.15 35.56 -0.15 36.62 -0.16 C46.27 -0.19 55.93 -0.22 65.58 -0.23 C77.92 -0.25 90.27 -0.3 102.62 -0.37 C111.3 -0.41 119.98 -0.44 128.66 -0.44 C133.85 -0.45 139.03 -0.46 144.22 -0.5 C149.1 -0.54 153.97 -0.55 158.85 -0.54 C160.64 -0.54 162.43 -0.55 164.22 -0.57 C179.42 -0.74 179.42 -0.74 183.96 2.95 C190.12 9.63 189.62 17.99 189.62 26.53 C189.63 27.58 189.63 28.62 189.63 29.7 C189.65 33.19 189.65 36.69 189.66 40.18 C189.67 42.69 189.68 45.2 189.68 47.7 C189.71 55.22 189.72 62.74 189.74 70.26 C189.74 72.39 189.74 74.51 189.75 76.64 C189.77 89.85 189.8 103.06 189.81 116.27 C189.81 119.33 189.81 122.38 189.82 125.44 C189.82 126.2 189.82 126.96 189.82 127.74 C189.83 140.05 189.87 152.35 189.91 164.66 C189.95 177.3 189.97 189.95 189.98 202.59 C189.98 209.69 189.99 216.78 190.03 223.88 C190.06 230.55 190.06 237.23 190.05 243.9 C190.05 246.35 190.06 248.79 190.08 251.24 C190.1 254.59 190.09 257.93 190.07 261.28 C190.09 262.24 190.1 263.21 190.12 264.2 C190.01 272.96 186.75 280.58 180.53 286.85 C164.1 302.19 143.03 301.6 122.03 301.35 C119.83 301.33 117.64 301.32 115.44 301.31 C110.12 301.27 104.79 301.22 99.47 301.16 C97.97 298.17 98.31 295.43 98.29 292.1 C98.28 291.37 98.28 290.64 98.27 289.89 C98.25 287.48 98.24 285.07 98.23 282.66 C98.22 281.84 98.22 281.02 98.22 280.17 C98.2 275.83 98.18 271.48 98.17 267.13 C98.16 262.63 98.13 258.14 98.09 253.64 C98.06 250.19 98.05 246.73 98.05 243.28 C98.04 241.62 98.03 239.96 98.01 238.31 C97.99 235.99 97.99 233.67 98 231.35 C97.99 230.03 97.99 228.71 97.98 227.36 C98.47 224.16 98.47 224.16 100.36 222.35 C101.05 221.96 101.75 221.56 102.47 221.16 C103.19 220.44 103.91 219.72 104.65 218.97 C107.08 216.55 109.55 214.21 112.09 211.91 C113.22 210.88 113.22 210.88 114.38 209.83 C116.47 208.16 116.47 208.16 119.47 207.16 C120.05 206.42 120.63 205.67 121.23 204.91 C123.89 201.64 126.77 199.58 130.22 197.22 C131.48 196.35 132.74 195.47 133.99 194.59 C134.6 194.17 135.2 193.75 135.82 193.32 C137.85 191.89 139.82 190.38 141.78 188.85 C144.94 186.47 148.2 184.53 151.68 182.66 C155.49 180.61 159.26 178.48 163.03 176.35 C164.45 175.55 165.87 174.75 167.28 173.95 C168.33 173.36 169.38 172.77 170.47 172.16 C170.47 170.84 170.47 169.52 170.47 168.16 C161.01 164.71 152.86 163.33 143.47 167.6 C141.8 168.45 140.13 169.3 138.47 170.16 C137.48 170.49 136.49 170.82 135.47 171.16 C134.13 172.15 132.8 173.15 131.47 174.16 C130.14 174.84 128.81 175.51 127.47 176.16 C124.43 177.83 124.43 177.83 123.47 180.16 C121.4 180.79 121.4 180.79 119.47 181.16 C119.47 181.82 119.47 182.48 119.47 183.16 C118.83 183.26 118.19 183.37 117.53 183.47 C116.85 183.7 116.17 183.93 115.47 184.16 C115.14 185.15 114.81 186.14 114.47 187.16 C113.54 187.38 113.54 187.38 112.59 187.6 C109.75 188.35 109.1 189.79 107.47 192.16 C106.81 192.49 106.15 192.82 105.47 193.16 C105.18 193.82 104.89 194.48 104.59 195.16 C103.47 197.16 103.47 197.16 101.34 197.91 C100.72 197.99 100.1 198.08 99.47 198.16 C98.57 195.46 98.31 193.75 98.24 190.97 C98.21 189.71 98.21 189.71 98.17 188.42 C98.1 184.58 98.05 180.73 98.01 176.89 C97.98 174.87 97.94 172.84 97.88 170.82 C97.8 167.9 97.77 164.97 97.75 162.05 C97.72 161.15 97.68 160.25 97.65 159.32 C97.67 153.14 97.67 153.14 99.98 150.31 C101.74 148.8 103.56 147.49 105.47 146.16 C106.83 144.77 106.83 144.77 108.22 143.35 C110.47 141.16 110.47 141.16 113.47 140.16 C114.01 139.45 114.55 138.75 115.11 138.02 C118.33 134.12 122.14 131.43 126.22 128.47 C127.06 127.86 127.89 127.25 128.76 126.62 C139.76 118.67 151.28 111.39 163.34 105.16 C166.59 103.55 166.59 103.55 167.16 101.04 C167.26 100.42 167.36 99.8 167.47 99.16 C157.61 95.57 148.81 94.46 139.03 98.81 C135.13 100.86 131.47 103.22 127.81 105.67 C125.47 107.16 125.47 107.16 122.47 108.16 C119.58 109.93 119.58 109.93 117.97 111.72 C116.47 113.16 116.47 113.16 113.47 114.16 C112.33 115.3 111.2 116.44 110.09 117.6 C108.32 119.3 106.43 120.7 104.47 122.16 C102.41 124 102.41 124 101.47 126.16 C100.81 126.16 100.15 126.16 99.47 126.16 C97.67 120.76 97.96 114.88 97.84 109.22 C97.8 107.69 97.74 106.15 97.66 104.62 C96.99 91.86 96.99 91.86 100.64 87.66 C103.17 85.9 105.72 84.54 108.47 83.16 C109.48 82.17 110.48 81.17 111.47 80.16 C112.13 80.16 112.79 80.16 113.47 80.16 C113.59 79.48 113.71 78.8 113.84 78.1 C114.47 75.16 114.47 75.16 115.53 72.04 C117.75 62.87 117.06 53.43 112.32 45.16 C107.57 38.8 100.37 36.28 92.97 34.16 C85.92 34.16 79.32 36.26 73.47 40.16 C72.74 40.28 72.02 40.41 71.28 40.54 C70.68 40.74 70.08 40.95 69.47 41.16 C68.38 43.37 68.38 43.37 67.47 46.16 C66.81 47.21 66.15 48.26 65.47 49.35 C61.89 55.59 60.81 61.69 62.47 68.72 C64.25 74.18 66.51 78.96 70.47 83.16 C72.17 83.89 73.88 84.58 75.61 85.24 C78.31 86.8 80.08 87.93 81.04 90.99 C81.93 96.63 81.72 102.34 81.59 108.04 C81.59 109.79 81.59 111.55 81.6 113.3 C81.61 117.59 81.55 121.87 81.47 126.16 C78.97 124.96 76.79 123.71 74.47 122.16 C74.47 121.5 74.47 120.84 74.47 120.16 C73.66 119.89 72.86 119.62 72.03 119.35 C71.18 118.96 70.34 118.56 69.47 118.16 C69.14 117.17 68.81 116.18 68.47 115.16 C65.96 113.94 65.96 113.94 63.47 113.16 C63.47 112.5 63.47 111.84 63.47 111.16 C62.7 110.81 62.7 110.81 61.91 110.46 C59.25 109.05 56.82 107.39 54.34 105.68 C40.61 96.01 40.61 96.01 24.47 93.16 C21.85 93.75 19.36 94.49 16.83 95.37 C14.39 96.19 11.99 96.7 9.47 97.16 C9.47 98.48 9.47 99.8 9.47 101.16 C10.29 101.39 11.11 101.62 11.95 101.86 C16.22 103.44 19.86 105.58 23.72 107.97 C24.5 108.46 25.28 108.94 26.09 109.43 C42.74 119.85 58.87 131.82 73.28 145.19 C75.41 147.25 75.41 147.25 78.06 148.62 C81.81 152.58 81.19 156.57 81.17 161.83 C81.19 162.87 81.2 163.91 81.22 164.98 C81.26 168.29 81.27 171.6 81.28 174.91 C81.3 177.16 81.33 179.4 81.36 181.65 C81.42 187.15 81.45 192.66 81.47 198.16 C78.41 196.69 76.07 195.12 73.53 192.85 C72.84 192.23 72.14 191.61 71.43 190.98 C69.78 189.45 68.21 187.9 66.65 186.29 C64.57 183.95 64.57 183.95 61.47 183.16 C60.81 182.17 60.15 181.18 59.47 180.16 C58.48 179.83 57.49 179.5 56.47 179.16 C56.47 178.5 56.47 177.84 56.47 177.16 C55.73 176.89 54.98 176.61 54.22 176.33 C51.64 175.24 49.67 174.03 47.4 172.41 C36.64 165.05 27.48 160.81 14.53 163.16 C12.84 163.49 11.15 163.82 9.47 164.16 C9.47 164.82 9.47 165.48 9.47 166.16 C8.15 166.49 6.83 166.82 5.47 167.16 C5.47 168.15 5.47 169.14 5.47 170.16 C6.12 170.23 6.78 170.29 7.46 170.36 C11.66 171.48 14.93 173.61 18.59 175.91 C19.38 176.4 20.16 176.88 20.97 177.39 C33.76 185.41 46.25 193.69 57.62 203.67 C60.24 205.96 62.92 208.14 65.65 210.29 C66.39 210.89 67.13 211.5 67.89 212.12 C70.42 214.19 70.42 214.19 73.09 215.88 C77.52 219.1 80.09 221.53 81.34 226.98 C81.75 231.69 81.59 236.38 81.44 241.1 C81.42 242.84 81.41 244.57 81.4 246.31 C81.36 250.85 81.26 255.39 81.15 259.94 C81.05 264.58 81.01 269.23 80.96 273.87 C80.85 282.97 80.68 292.07 80.47 301.16 C67.62 301.23 54.77 301.28 41.92 301.32 C35.95 301.33 29.99 301.35 24.02 301.39 C18.26 301.42 12.49 301.44 6.73 301.45 C4.54 301.45 2.34 301.46 0.15 301.48 C-2.94 301.5 -6.02 301.5 -9.1 301.5 C-10.45 301.52 -10.45 301.52 -11.82 301.53 C-25.58 301.47 -36.25 296.48 -46.16 287.1 C-57.07 275.74 -66.87 259.35 -66.8 243.26 C-66.81 242.48 -66.81 241.71 -66.81 240.91 C-66.83 238.31 -66.83 235.72 -66.82 233.12 C-66.83 231.26 -66.84 229.39 -66.84 227.53 C-66.86 222.47 -66.87 217.41 -66.87 212.35 C-66.87 209.18 -66.87 206.02 -66.88 202.85 C-66.9 191.8 -66.91 180.76 -66.9 169.71 C-66.9 159.42 -66.92 149.14 -66.96 138.86 C-66.98 130.02 -66.99 121.18 -66.99 112.34 C-66.99 107.06 -67 101.79 -67.02 96.51 C-67.04 91.55 -67.04 86.58 -67.02 81.62 C-67.02 79.8 -67.02 77.99 -67.04 76.17 C-67.12 62.75 -65.26 52.56 -57.85 41.1 C-57.19 40.08 -57.19 40.08 -56.53 39.03 C-47.92 25.88 -37.52 17.81 -23.53 11 C-19.92 9.18 -17.98 7.97 -16.53 4.16 C-11.13 0.32 -6.47 0.01 0 0 Z M-17.53 52.16 C-18.18 53.06 -18.18 53.06 -18.85 53.97 C-20.32 55.88 -21.8 57.5 -23.53 59.16 C-30.15 65.52 -32.11 74.57 -34.53 83.16 C-34.8 84.04 -34.8 84.04 -35.06 84.93 C-35.65 87.72 -35.67 90.32 -35.67 93.17 C-35.68 94.4 -35.69 95.64 -35.69 96.91 C-35.69 98.27 -35.69 99.63 -35.69 100.99 C-35.7 102.43 -35.7 103.87 -35.71 105.31 C-35.72 109.21 -35.73 113.12 -35.73 117.02 C-35.74 119.47 -35.74 121.91 -35.74 124.36 C-35.76 132.02 -35.77 139.68 -35.77 147.34 C-35.78 156.16 -35.79 164.97 -35.82 173.79 C-35.84 180.62 -35.85 187.45 -35.86 194.28 C-35.86 198.36 -35.86 202.43 -35.88 206.5 C-35.9 210.34 -35.9 214.18 -35.89 218.02 C-35.89 219.42 -35.89 220.81 -35.9 222.21 C-35.99 235.51 -34.33 248.98 -26.53 260.16 C-25.87 260.16 -25.21 260.16 -24.53 260.16 C-24.35 260.74 -24.16 261.32 -23.97 261.91 C-21.79 265.33 -19.17 266.41 -15.53 268.16 C-14.87 267.83 -14.21 267.5 -13.53 267.16 C-13.86 266.83 -14.19 266.5 -14.53 266.16 C-14.62 263.43 -14.65 260.73 -14.63 258.01 C-14.63 257.14 -14.63 256.28 -14.63 255.38 C-14.62 252.46 -14.61 249.54 -14.6 246.62 C-14.59 244.53 -14.59 242.45 -14.58 240.36 C-14.57 235.86 -14.56 231.36 -14.55 226.85 C-14.52 219.74 -14.51 212.63 -14.5 205.52 C-14.47 185.29 -14.42 165.06 -14.36 144.83 C-14.33 133.67 -14.3 122.51 -14.29 111.34 C-14.28 105.43 -14.27 99.52 -14.25 93.6 C-14.22 88.04 -14.21 82.48 -14.21 76.93 C-14.21 74.88 -14.2 72.83 -14.19 70.79 C-14.17 68.01 -14.17 65.23 -14.18 62.44 C-14.17 61.62 -14.16 60.81 -14.15 59.96 C-14.13 57.49 -14.13 57.49 -14.53 54.16 C-15.52 53.5 -16.51 52.84 -17.53 52.16 Z M117.47 55.16 C118.47 57.16 118.47 57.16 118.47 57.16 Z M117.47 68.16 C118.47 70.16 118.47 70.16 118.47 70.16 Z " fill="#8E69FB" transform="translate(169.5331573486328,32.83937072753906)"/>
<path d="M0 0 C14.85 0.5 14.85 0.5 30 1 C30 48.19 30 95.38 30 144 C20.43 144 10.86 144 1 144 C-0.37 141.25 -0.12 139.06 -0.11 135.99 C-0.11 134.1 -0.11 134.1 -0.11 132.17 C-0.11 130.79 -0.1 129.4 -0.1 128.02 C-0.1 126.61 -0.09 125.2 -0.09 123.79 C-0.09 120.08 -0.08 116.37 -0.07 112.66 C-0.06 108.87 -0.05 105.08 -0.05 101.3 C-0.04 93.86 -0.02 86.43 0 79 C-0.66 79 -1.32 79 -2 79 C-2.39 80.24 -2.78 81.47 -3.19 82.75 C-5.2 88.59 -7.62 94.29 -10 100 C-18.91 100 -27.82 100 -37 100 C-37.33 99.01 -37.66 98.02 -38 97 C-38.66 97 -39.32 97 -40 97 C-41.15 94.25 -42.29 91.5 -43.44 88.75 C-43.76 87.97 -44.09 87.2 -44.42 86.39 C-44.74 85.64 -45.05 84.89 -45.37 84.11 C-45.66 83.42 -45.95 82.73 -46.24 82.01 C-47 80 -47 80 -48 76 C-48.33 98.44 -48.66 120.88 -49 144 C-58.57 144 -68.14 144 -78 144 C-78 96.81 -78 49.62 -78 1 C-68.1 1 -58.2 1 -48 1 C-47.17 2.99 -46.33 4.99 -45.47 7.04 C-44.63 9.05 -43.8 11.05 -42.96 13.05 C-42.36 14.47 -41.77 15.89 -41.17 17.31 C-37.03 27.21 -32.85 37.1 -28.54 46.93 C-26 52.78 -26 52.78 -26 55 C-25.34 55 -24.68 55 -24 55 C-17.09 40.07 -10.54 25.01 -4.19 9.83 C-2.81 6.55 -1.4 3.27 0 0 Z " fill="#8E69FB" transform="translate(972,104)"/>
<path d="M0 0 C1.19 -0.01 2.37 -0.03 3.59 -0.04 C5.53 -0.05 5.53 -0.05 7.52 -0.06 C8.17 -0.07 8.83 -0.07 9.51 -0.07 C13.01 -0.09 16.5 -0.11 19.99 -0.12 C23.58 -0.13 27.16 -0.16 30.75 -0.2 C33.52 -0.23 36.3 -0.24 39.07 -0.24 C41.03 -0.25 42.98 -0.27 44.94 -0.3 C57.85 -0.27 68.5 3.48 77.88 12.51 C87.8 23.06 90.95 32.93 90.79 47.34 C90.38 52.11 89.17 56.15 87.43 60.59 C86.46 63.19 85.7 65.41 85.46 68.18 C86.49 70.21 86.49 70.21 88.15 71.99 C95.08 80.56 97.86 89.65 97.71 100.61 C97.7 101.74 97.7 101.74 97.68 102.88 C97.44 114.66 94.25 123.94 86.02 132.8 C77.42 140.78 69.28 145.45 57.24 145.4 C56.56 145.4 55.87 145.4 55.17 145.4 C52.93 145.4 50.7 145.39 48.47 145.37 C46.91 145.37 45.35 145.37 43.79 145.36 C39.7 145.36 35.62 145.34 31.53 145.31 C27.36 145.29 23.18 145.28 19 145.27 C10.82 145.25 2.64 145.22 -5.54 145.18 C-5.69 126.42 -5.84 107.66 -5.98 88.9 C-6.05 80.19 -6.11 71.48 -6.19 62.78 C-6.25 55.19 -6.31 47.6 -6.36 40.01 C-6.39 35.99 -6.42 31.97 -6.46 27.95 C-6.49 24.17 -6.52 20.39 -6.55 16.61 C-6.56 15.22 -6.57 13.83 -6.58 12.44 C-6.6 10.55 -6.61 8.66 -6.62 6.76 C-6.63 5.7 -6.64 4.64 -6.65 3.55 C-6.44 -0.94 -3.92 0.04 0 0 Z M51.46 1.18 C55.46 2.18 55.46 2.18 55.46 2.18 Z M21.46 28.18 C20.16 30.79 20.35 32.7 20.36 35.62 C20.37 36.7 20.37 37.78 20.37 38.88 C20.38 40.01 20.39 41.14 20.4 42.3 C20.4 43.44 20.41 44.57 20.41 45.74 C20.42 48.55 20.44 51.37 20.46 54.18 C24.64 54.25 28.82 54.31 33 54.34 C34.43 54.36 35.85 54.38 37.27 54.4 C39.31 54.44 41.36 54.46 43.41 54.47 C44.64 54.49 45.87 54.5 47.14 54.52 C50.75 54.15 52.57 53.33 55.46 51.18 C58.65 47.21 58.97 44.19 58.46 39.18 C57.5 35.14 56.74 32.13 53.32 29.58 C49.85 27.87 47.48 27.83 43.63 27.88 C42.34 27.89 41.04 27.9 39.71 27.91 C38.36 27.94 37 27.96 35.65 27.99 C34.27 28 32.9 28.02 31.53 28.03 C28.17 28.07 24.82 28.12 21.46 28.18 Z M20.46 85.18 C20.17 88.07 20.17 88.07 20.23 91.46 C20.23 92.71 20.23 93.97 20.24 95.26 C20.25 96.57 20.26 97.89 20.27 99.24 C20.27 100.56 20.28 101.88 20.28 103.23 C19.73 109.09 19.73 109.09 21.46 114.18 C25.63 114.42 29.8 114.41 33.97 114.42 C36.06 114.43 38.14 114.46 40.23 114.49 C41.57 114.5 42.91 114.5 44.25 114.51 C46.07 114.52 46.07 114.52 47.93 114.53 C53.05 114.02 56.94 112.54 60.84 109.05 C63.58 104.21 63.97 99.97 62.97 94.51 C61.45 89.44 61.45 89.44 57.55 86.01 C50.3 82.66 43.33 82.64 35.46 82.8 C34.24 82.8 33.01 82.8 31.75 82.81 C25.52 82.41 25.52 82.41 20.46 85.18 Z " fill="#8F6AFC" transform="translate(1023.53857421875,102.822998046875)"/>
<path d="M0 0 C1.81 0.07 1.81 0.07 3.67 0.14 C4.84 0.19 6.02 0.23 7.23 0.27 C8.73 0.33 10.24 0.4 11.79 0.46 C18.93 0.74 18.93 0.74 26.22 1.02 C26.22 19.5 26.22 37.98 26.22 57.02 C40.74 57.02 55.26 57.02 70.22 57.02 C70.22 38.54 70.22 20.06 70.22 1.02 C79.17 -3.45 90.23 0.66 100.22 1.02 C100.22 48.21 100.22 95.4 100.22 144.02 C90.65 144.02 81.08 144.02 71.22 144.02 C69.92 141.41 70.1 139.49 70.11 136.56 C70.11 134.85 70.11 134.85 70.11 133.1 C70.12 131.87 70.12 130.63 70.13 129.36 C70.13 128.1 70.13 126.83 70.13 125.53 C70.14 122.18 70.14 118.82 70.16 115.46 C70.17 112.04 70.17 108.61 70.18 105.19 C70.19 98.46 70.2 91.74 70.22 85.02 C64.26 85.14 58.3 85.26 52.33 85.39 C50.3 85.44 48.27 85.48 46.24 85.52 C43.33 85.58 40.42 85.64 37.51 85.71 C36.6 85.72 35.68 85.74 34.74 85.76 C30.66 85.44 30.66 85.44 27.22 87.02 C27.1 88.8 27.05 90.58 27.02 92.37 C27 93.51 26.98 94.65 26.96 95.83 C26.93 97.69 26.93 97.69 26.91 99.59 C26.89 100.85 26.87 102.12 26.84 103.42 C26.79 106.78 26.74 110.15 26.69 113.51 C26.64 116.95 26.59 120.38 26.53 123.81 C26.42 130.55 26.32 137.28 26.22 144.02 C16.65 144.02 7.08 144.02 -2.78 144.02 C-4.1 141.38 -3.9 139.4 -3.9 136.44 C-3.91 135.25 -3.91 134.06 -3.91 132.84 C-3.91 131.53 -3.91 130.22 -3.91 128.87 C-3.91 127.48 -3.91 126.09 -3.91 124.7 C-3.91 120.93 -3.91 117.15 -3.91 113.38 C-3.91 109.44 -3.91 105.49 -3.91 101.55 C-3.91 94.93 -3.91 88.31 -3.91 81.68 C-3.9 74.02 -3.9 66.35 -3.91 58.69 C-3.91 52.11 -3.91 45.54 -3.91 38.97 C-3.91 35.04 -3.91 31.11 -3.91 27.18 C-3.91 23.49 -3.91 19.79 -3.91 16.1 C-3.91 14.09 -3.91 12.08 -3.91 10.07 C-3.91 8.89 -3.91 7.7 -3.9 6.48 C-3.9 5.45 -3.9 4.41 -3.9 3.34 C-3.72 -0.06 -3.45 0.03 0 0 Z " fill="#8F6AFC" transform="translate(731.775634765625,103.978271484375)"/>
<path d="M0 0 C10.98 8.97 17.82 19.7 20.31 33.69 C20.72 38.45 20.76 43.19 20.75 47.96 C20.75 49.31 20.76 50.65 20.76 51.99 C20.77 54.78 20.77 57.58 20.76 60.37 C20.75 63.91 20.77 67.45 20.8 70.99 C20.81 73.76 20.81 76.52 20.81 79.29 C20.81 81.21 20.83 83.14 20.84 85.07 C20.73 99.89 16.29 112.61 6.06 123.44 C-4.84 133.74 -17.62 138.31 -32.51 138.09 C-38.56 137.86 -44.03 136.88 -49.69 134.69 C-50.49 134.39 -51.29 134.1 -52.12 133.8 C-65.25 128.17 -74.8 116.74 -80.46 103.93 C-83.26 96.73 -83.14 89.61 -83.12 81.98 C-83.13 80.56 -83.13 79.14 -83.14 77.72 C-83.15 74.76 -83.14 71.8 -83.13 68.84 C-83.12 65.08 -83.14 61.31 -83.17 57.55 C-83.19 54.62 -83.19 51.7 -83.18 48.77 C-83.18 47.39 -83.19 46 -83.2 44.61 C-83.32 29.29 -78.55 15.64 -67.88 4.31 C-48.74 -13.45 -20.93 -15.57 0 0 Z M-47.39 26.95 C-50.45 32.27 -51.8 36.8 -51.86 42.94 C-51.88 43.99 -51.89 45.04 -51.9 46.12 C-51.91 47.25 -51.92 48.38 -51.93 49.54 C-51.93 50.71 -51.94 51.88 -51.95 53.08 C-51.96 55.56 -51.97 58.03 -51.98 60.51 C-52 64.28 -52.04 68.04 -52.09 71.81 C-52.1 74.22 -52.11 76.63 -52.11 79.04 C-52.13 80.16 -52.15 81.27 -52.17 82.42 C-52.14 90.88 -50.61 97.77 -45.5 104.62 C-39.35 109.13 -33.41 110.3 -25.91 109.19 C-19.75 107.8 -16.37 103.52 -12.69 98.69 C-11.32 95.96 -11.54 93.77 -11.51 90.71 C-11.5 89.46 -11.48 88.2 -11.47 86.91 C-11.46 85.53 -11.46 84.15 -11.45 82.77 C-11.45 82.08 -11.44 81.38 -11.44 80.67 C-11.42 76.99 -11.4 73.31 -11.39 69.63 C-11.38 65.85 -11.35 62.06 -11.31 58.27 C-11.28 55.35 -11.27 52.43 -11.27 49.51 C-11.26 48.11 -11.25 46.72 -11.23 45.32 C-11.13 37.36 -11.24 31.44 -15.69 24.69 C-20.11 20.38 -24.27 18.61 -30.38 18.19 C-37.33 18.36 -43.19 21.36 -47.39 26.95 Z M-10.69 38.69 C-10.69 55.85 -10.69 73.01 -10.69 90.69 C-10.36 90.69 -10.03 90.69 -9.69 90.69 C-9.69 73.53 -9.69 56.37 -9.69 38.69 C-10.02 38.69 -10.35 38.69 -10.69 38.69 Z " fill="#8F6AFC" transform="translate(1218.6875,112.3125)"/>
<path d="M0 0 C3.13 -0.2 6.05 -0.21 9.16 -0.07 C10.07 -0.05 10.98 -0.02 11.91 0.01 C14.82 0.09 17.72 0.2 20.62 0.31 C22.59 0.38 24.56 0.44 26.52 0.5 C31.35 0.65 36.17 0.82 41 1 C43.48 8.09 45.4 15.23 47.2 22.52 C47.66 24.41 48.13 26.29 48.6 28.18 C49.1 30.19 49.6 32.2 50.1 34.21 C51.68 40.61 53.27 47.01 54.86 53.4 C55.23 54.89 55.6 56.38 55.97 57.87 C58.89 69.6 61.85 81.32 64.84 93.03 C65.23 94.58 65.63 96.14 66.02 97.69 C67.75 104.46 69.48 111.23 71.21 117.99 C71.92 120.77 72.63 123.56 73.34 126.34 C73.83 128.25 74.32 130.17 74.82 132.08 C75.25 133.78 75.25 133.78 75.69 135.52 C75.95 136.52 76.2 137.51 76.46 138.53 C77 141 77 141 77 144 C66.77 144 56.54 144 46 144 C46 143.34 46 142.68 46 142 C45.34 142 44.68 142 44 142 C42.83 137.71 41.66 133.42 40.5 129.12 C40.17 127.9 39.83 126.68 39.49 125.42 C39.17 124.25 38.86 123.08 38.53 121.88 C38.24 120.8 37.94 119.73 37.64 118.61 C37 116 37 116 37 114 C20.66 114.5 20.66 114.5 4 115 C1.64 121.97 1.64 121.97 -0.35 129 C-0.67 130.24 -0.67 130.24 -0.99 131.5 C-1.42 133.2 -1.85 134.9 -2.28 136.6 C-2.49 137.41 -2.7 138.22 -2.91 139.06 C-3.1 139.8 -3.28 140.53 -3.48 141.29 C-4 143 -4 143 -5 144 C-7.29 144.09 -9.59 144.11 -11.88 144.1 C-12.91 144.1 -12.91 144.1 -13.96 144.09 C-16.16 144.09 -18.36 144.08 -20.56 144.06 C-22.05 144.06 -23.54 144.05 -25.03 144.05 C-28.69 144.04 -32.34 144.02 -36 144 C-37.21 140.36 -36.68 138.89 -35.73 135.21 C-35.27 133.39 -35.27 133.39 -34.8 131.55 C-34.45 130.21 -34.11 128.87 -33.76 127.53 C-33.4 126.13 -33.04 124.72 -32.68 123.31 C-31.71 119.5 -30.72 115.69 -29.74 111.88 C-28.71 107.91 -27.7 103.93 -26.68 99.95 C-25.41 95.01 -24.15 90.07 -22.88 85.13 C-20.11 74.38 -17.39 63.63 -14.68 52.87 C-14.09 50.51 -13.5 48.15 -12.91 45.8 C-12.72 45.03 -12.52 44.27 -12.33 43.49 C-11.94 41.97 -11.56 40.45 -11.18 38.93 C-10.25 35.23 -9.32 31.52 -8.39 27.81 C-7.52 24.34 -6.65 20.86 -5.77 17.38 C-5.29 15.5 -4.83 13.62 -4.36 11.74 C-4.08 10.63 -3.79 9.51 -3.5 8.36 C-3.14 6.91 -3.14 6.91 -2.76 5.43 C-2 3 -2 3 0 0 Z M19 38 C18.83 38.89 18.66 39.78 18.48 40.7 C17.84 44.05 17.19 47.4 16.55 50.75 C16.27 52.19 15.99 53.63 15.71 55.08 C15.31 57.16 14.91 59.25 14.51 61.34 C14.38 62.02 14.25 62.69 14.11 63.39 C13.41 67.01 12.65 70.6 11.8 74.19 C10.83 78.17 10.83 78.17 11 83 C17.27 83 23.54 83 30 83 C29.69 81.43 29.37 79.85 29.05 78.23 C26.36 64.82 23.68 51.41 21 38 C20.34 38 19.68 38 19 38 Z " fill="#8F6AFC" transform="translate(533,104)"/>
<path d="M0 0 C5.57 4.83 10.93 10.19 14 17 C14 17.99 14 18.98 14 20 C10.26 21.85 6.5 23.67 2.75 25.5 C1.69 26.02 0.62 26.55 -0.47 27.09 C-2.01 27.83 -2.01 27.83 -3.58 28.59 C-4.52 29.05 -5.46 29.52 -6.43 29.99 C-9 31 -9 31 -13 31 C-14.71 29.14 -14.71 29.14 -16.38 26.69 C-19.27 22.8 -21.2 20.39 -26 19 C-32.56 18.12 -37.81 18.44 -43.28 22.36 C-46.99 25.89 -50.84 31.26 -51.15 36.46 C-51.16 37.5 -51.17 38.54 -51.18 39.61 C-51.19 40.78 -51.2 41.96 -51.22 43.17 C-51.22 44.45 -51.23 45.72 -51.24 47.04 C-51.25 48.35 -51.25 49.66 -51.26 51.01 C-51.28 53.79 -51.29 56.57 -51.3 59.35 C-51.31 62.89 -51.34 66.43 -51.38 69.98 C-51.41 73.37 -51.42 76.77 -51.43 80.16 C-51.44 81.43 -51.46 82.69 -51.48 84 C-51.46 91.15 -50.95 95.97 -47 102 C-41.57 106.58 -35.98 108.31 -28.94 107.88 C-23.47 107.14 -19.93 105.42 -16.42 101.01 C-15.89 100.3 -15.37 99.58 -14.83 98.85 C-14.03 97.77 -14.03 97.77 -13.22 96.66 C-12.81 96.12 -12.41 95.57 -12 95 C-8.79 96.41 -5.58 97.83 -2.38 99.25 C-1.47 99.65 -0.57 100.04 0.36 100.45 C5.24 102.62 9.67 104.87 14 108 C12.83 116.81 5.65 122.77 -1.06 127.94 C-5.3 130.95 -9.05 133.41 -14 135 C-14.6 135.2 -15.2 135.4 -15.82 135.61 C-29.07 139.34 -43.54 137.68 -55.74 131.64 C-69.49 123.85 -77.89 112.92 -83 98 C-83.86 94.38 -84.14 91.01 -84.16 87.3 C-84.17 86.18 -84.18 85.05 -84.19 83.9 C-84.19 82.69 -84.2 81.49 -84.2 80.25 C-84.21 78.99 -84.21 77.74 -84.22 76.45 C-84.23 73.8 -84.24 71.15 -84.24 68.5 C-84.24 65.8 -84.26 63.11 -84.28 60.41 C-84.31 56.5 -84.32 52.59 -84.33 48.68 C-84.34 47.49 -84.35 46.3 -84.37 45.07 C-84.33 32.64 -81.6 22.52 -75 12 C-74.56 11.28 -74.12 10.56 -73.66 9.82 C-66.64 -0.59 -53.54 -8.14 -41.34 -10.71 C-25.78 -12.61 -12.46 -9.62 0 0 Z " fill="#8F6AFC" transform="translate(700,113)"/>
<path d="M0 0 C5.4 4.75 10.26 9.84 14 16 C14 17.32 14 18.64 14 20 C10.26 21.85 6.5 23.67 2.75 25.5 C1.69 26.02 0.62 26.55 -0.47 27.09 C-2.01 27.83 -2.01 27.83 -3.58 28.59 C-4.52 29.05 -5.46 29.52 -6.43 29.99 C-9 31 -9 31 -13 31 C-14.71 29.14 -14.71 29.14 -16.38 26.69 C-19.26 22.81 -21.22 20.41 -26 19 C-32.84 18.1 -38.32 18.97 -44 23 C-51.32 30.32 -51.47 38.22 -51.47 48.02 C-51.48 49.27 -51.48 50.53 -51.49 51.82 C-51.5 54.47 -51.51 57.11 -51.5 59.76 C-51.5 62.46 -51.51 65.15 -51.54 67.85 C-51.59 71.76 -51.59 75.67 -51.59 79.58 C-51.61 80.78 -51.63 81.97 -51.64 83.2 C-51.58 90.73 -50.52 96.8 -46 103 C-40.84 107.11 -34.49 108.25 -28 108 C-21.68 106.85 -18.72 104.06 -15 99 C-13.68 97.68 -12.36 96.36 -11 95 C-3.41 98.63 4.18 102.26 12 106 C12 106.66 12 107.32 12 108 C12.66 108 13.32 108 14 108 C12.94 116.16 6.31 122.14 0.31 127.31 C-11.47 136.32 -25.62 138.19 -40 137 C-54.34 134.32 -66.06 126.4 -75 115 C-82.29 103.96 -84.31 93.17 -84.3 80.17 C-84.31 78.95 -84.31 77.72 -84.31 76.46 C-84.32 73.87 -84.32 71.29 -84.32 68.7 C-84.31 64.78 -84.34 60.85 -84.36 56.93 C-84.36 54.4 -84.36 51.88 -84.36 49.36 C-84.37 48.2 -84.38 47.04 -84.39 45.84 C-84.3 29.79 -79.5 15.87 -68.28 4.18 C-49.04 -14.23 -21.34 -16.51 0 0 Z M-83 36 C-82 38 -82 38 -82 38 Z M-83 90 C-82 93 -82 93 -82 93 Z " fill="#8F6AFC" transform="translate(475,113)"/>
<path d="M0 0 C9.57 0.33 19.14 0.66 29 1 C29 48.19 29 95.38 29 144 C19.43 144 9.86 144 0 144 C-1.32 141.35 -1.13 139.38 -1.13 136.41 C-1.13 135.23 -1.13 134.04 -1.14 132.81 C-1.13 131.5 -1.13 130.19 -1.13 128.85 C-1.13 127.46 -1.13 126.07 -1.13 124.68 C-1.14 120.91 -1.14 117.13 -1.13 113.36 C-1.13 109.41 -1.13 105.47 -1.14 101.53 C-1.14 94.91 -1.14 88.28 -1.13 81.66 C-1.12 74 -1.13 66.33 -1.13 58.66 C-1.14 52.09 -1.14 45.52 -1.13 38.95 C-1.13 35.02 -1.13 31.09 -1.14 27.16 C-1.14 23.46 -1.14 19.77 -1.13 16.08 C-1.13 14.07 -1.13 12.06 -1.14 10.05 C-1.13 8.87 -1.13 7.68 -1.13 6.46 C-1.13 5.42 -1.13 4.39 -1.13 3.32 C-1 1 -1 1 0 0 Z " fill="#8F6AFC" transform="translate(848,104)"/>
<path d="M0 0 C0.33 0 0.66 0 1 0 C1 46.53 1 93.06 1 141 C0.67 141 0.34 141 0 141 C0 94.47 0 47.94 0 0 Z " fill="#8F6AFC" transform="translate(1016,105)"/>
<path d="M0 0 C0.33 0 0.66 0 1 0 C1 46.53 1 93.06 1 141 C0.67 141 0.34 141 0 141 C0 94.47 0 47.94 0 0 Z " fill="#8F6AFC" transform="translate(892,105)"/>
<path d="M0 0 C12.54 0 25.08 0 38 0 C38 0.33 38 0.66 38 1 C25.46 1 12.92 1 0 1 C0 0.67 0 0.34 0 0 Z " fill="#8F6AFC" transform="translate(534,103)"/>
<path d="M0 0 C8.91 0 17.82 0 27 0 C27 0.33 27 0.66 27 1 C18.09 1 9.18 1 0 1 C0 0.67 0 0.34 0 0 Z " fill="#8F6AFC" transform="translate(894,103)"/>
<path d="M0 0 C8.58 0 17.16 0 26 0 C26 0.33 26 0.66 26 1 C17.42 1 8.84 1 0 1 C0 0.67 0 0.34 0 0 Z " fill="#8F6AFC" transform="translate(974,103)"/>
<path d="M0 0 C8.58 0 17.16 0 26 0 C26 0.33 26 0.66 26 1 C17.42 1 8.84 1 0 1 C0 0.67 0 0.34 0 0 Z " fill="#8F6AFC" transform="translate(849,103)"/>
<path d="M0 0 C8.58 0 17.16 0 26 0 C26 0.33 26 0.66 26 1 C17.42 1 8.84 1 0 1 C0 0.67 0 0.34 0 0 Z " fill="#8F6AFC" transform="translate(804,103)"/>
<path d="M0 0 C8.58 0 17.16 0 26 0 C26 0.33 26 0.66 26 1 C17.42 1 8.84 1 0 1 C0 0.67 0 0.34 0 0 Z " fill="#8F6AFC" transform="translate(730,103)"/>
<path d="M0 0 C0 0.99 0 1.98 0 3 C-0.66 2.67 -1.32 2.34 -2 2 C-1.34 1.34 -0.68 0.68 0 0 Z " fill="#392A66" transform="translate(152,86)"/>
<path d="M0 0 C0.33 0.66 0.66 1.32 1 2 C0.34 1.67 -0.32 1.34 -1 1 C-0.67 0.67 -0.34 0.34 0 0 Z " fill="#2F2355" transform="translate(281,220)"/>
<path d="M0 0 C0.33 0.66 0.66 1.32 1 2 C0.34 1.67 -0.32 1.34 -1 1 C-0.67 0.67 -0.34 0.34 0 0 Z " fill="#2F2355" transform="translate(286,216)"/>
<path d="M0 0 C0.33 0.66 0.66 1.32 1 2 C0.34 1.67 -0.32 1.34 -1 1 C-0.67 0.67 -0.34 0.34 0 0 Z " fill="#2F2355" transform="translate(280,149)"/>
<path d="M0 0 C0.33 0.66 0.66 1.32 1 2 C0.34 1.67 -0.32 1.34 -1 1 C-0.67 0.67 -0.34 0.34 0 0 Z " fill="#2F2355" transform="translate(240,73)"/>
<path d="" fill="#8F6AFC" transform="translate(0,0)"/>
<path d="" fill="#8F6AFC" transform="translate(0,0)"/>
<path d="" fill="#8F6AFC" transform="translate(0,0)"/>
<path d="" fill="#8F6AFC" transform="translate(0,0)"/>
<path d="" fill="#8F6AFC" transform="translate(0,0)"/>
<path d="" fill="#8F6AFC" transform="translate(0,0)"/>
<path d="" fill="#000002" transform="translate(0,0)"/>
<path d="" fill="#000002" transform="translate(0,0)"/>
<path d="" fill="#000002" transform="translate(0,0)"/>
<path d="" fill="#000002" transform="translate(0,0)"/>
<path d="" fill="#000002" transform="translate(0,0)"/>
<path d="" fill="#000002" transform="translate(0,0)"/>
<path d="" fill="#000002" transform="translate(0,0)"/>
<path d="" fill="#000002" transform="translate(0,0)"/>
<path d="" fill="#000002" transform="translate(0,0)"/>
<path d="" fill="#000002" transform="translate(0,0)"/>
<path d="" fill="#000002" transform="translate(0,0)"/>
<path d="" fill="#8F6AFC" transform="translate(0,0)"/>
<path d="" fill="#8F6AFC" transform="translate(0,0)"/>
<path d="" fill="#8F6AFC" transform="translate(0,0)"/>
<path d="" fill="#000002" transform="translate(0,0)"/>
<path d="" fill="#000002" transform="translate(0,0)"/>
<path d="" fill="#000002" transform="translate(0,0)"/>
<path d="" fill="#000002" transform="translate(0,0)"/>
<path d="" fill="#000002" transform="translate(0,0)"/>
<path d="" fill="#000002" transform="translate(0,0)"/>
<path d="" fill="#000002" transform="translate(0,0)"/>
<path d="" fill="#8F6AFC" transform="translate(0,0)"/>
<path d="" fill="#000002" transform="translate(0,0)"/>
<path d="" fill="#000002" transform="translate(0,0)"/>
</svg>
